<svg xmlns="http://www.w3.org/2000/svg" viewBox="0 0 64 80" x="0px" y="0px"><title>Disability 40</title><g data-name="Layer 41"><path d="M53.5227,23.6084A7.5707,7.5707,0,0,0,45.9436,16.34H43.3955a6.215,6.215,0,0,0,3.0052-4.5869l.4023-3.28a6.2227,6.2227,0,0,0-6.1767-6.9815h-.8047a6.2227,6.2227,0,0,0-6.1768,6.9815l.4024,3.28A6.2181,6.2181,0,0,0,37.0534,16.34H34.5345a7.4088,7.4088,0,0,0-2.4963.4419,7.5959,7.5959,0,0,0-2.5428-.4428H27.0391a6.2159,6.2159,0,0,0,3.0032-4.586l.4023-3.28a6.2227,6.2227,0,0,0-6.1767-6.9815h-.8047a6.2227,6.2227,0,0,0-6.1768,6.9815l.4024,3.28a6.2157,6.2157,0,0,0,3.0031,4.586H19.4182A3.0064,3.0064,0,0,0,16.4827,13.97H15.2483a3.0008,3.0008,0,0,0-2.9131,3.7217l.0782.3184a3.5549,3.5549,0,0,0,.2432.6627,7.5122,7.5122,0,0,0-1.8253,3.0492,7.6692,7.6692,0,0,0-.3545,1.8906l-.6591,16.127a2.96,2.96,0,0,0,2.957,3.08c.0308,0,.06-.0113.0908-.0122V59.5088a3,3,0,0,0,6,0v-8.18h4.36a.9934.9934,0,0,0,.6074-.2061l.99,6.3285L24.05,60.2529a1.78,1.78,0,0,0,1.7168,2.2559h4.1777a1.7817,1.7817,0,0,0,1.7168-2.2559l-.7822-2.83,1.1655-11.6549L33.2066,57.387l-.7913,2.8659a1.78,1.78,0,0,0,1.7168,2.2559H38.31a1.7816,1.7816,0,0,0,1.7168-2.2559l-.7656-2.7706.9629-6.1561.96,6.1314-.7725,2.7973a1.7811,1.7811,0,0,0,1.7168,2.2539h4.1777a1.78,1.78,0,0,0,1.7168-2.2549l-.7841-2.8409,1.5836-15.836a2.9579,2.9579,0,0,0,5.3607-1.8377Zm-13.2988-3.19a1.0007,1.0007,0,0,1-1-1V17.1238a5.4228,5.4228,0,0,0,2,0V19.418A1.0007,1.0007,0,0,1,40.2239,20.418ZM36.6585,4.916a4.2259,4.2259,0,0,1,3.1631-1.4248h.8047A4.1422,4.1422,0,0,1,44.5634,6.239l-.0084.0071a9.6866,9.6866,0,0,1-6.212,2.26h-2.68l-.034-.2774A4.2285,4.2285,0,0,1,36.6585,4.916Zm-.627,6.5928-.123-1.0029H38.343A11.6863,11.6863,0,0,0,44.778,8.56l-.3617,2.9489a4.224,4.224,0,0,1-8.3848,0Zm1.1924,6.831V19.418a2.9948,2.9948,0,0,0,2.5869,2.9582v.4158a.5.5,0,0,0,1,0v-.4334a3.0036,3.0036,0,0,0,2.4131-2.9406V18.34h2.72a5.5747,5.5747,0,0,1,5.5811,5.3516l.5247,12.8174H50.2229l-.5215-12.1025A.9831.9831,0,0,0,48.66,23.45a1,1,0,0,0-.9561,1.042l.5176,12.0166h-7.41V36.167a.5.5,0,0,0-1,0v.3418H37.5989l-.5264-12.8965A7.5557,7.5557,0,0,0,34.63,18.34ZM35.7327,39.82a.9589.9589,0,1,1-1.917.0391V38.5088h1.8635ZM22.8655,17.1238a5.4228,5.4228,0,0,0,2,0V19.418a1,1,0,0,1-2,0ZM20.3,4.916a4.2259,4.2259,0,0,1,3.1631-1.4248h.8047A4.2239,4.2239,0,0,1,28.46,8.2285l-.029.2362A3.366,3.366,0,0,1,25.595,7.2275L25.388,6.97a1.9727,1.9727,0,0,0-1.5244-.7373,1.9137,1.9137,0,0,0-1.5332.7129l-.2911.35a3.3188,3.3188,0,0,1-2.7356,1.2016l-.0329-.268A4.2285,4.2285,0,0,1,20.3,4.916Zm-.627,6.5928L19.55,10.5047a5.31,5.31,0,0,0,4.0274-1.9315l.251-.3505.207.2578a5.3682,5.3682,0,0,0,4.1505,1.985l-.128,1.0433a4.224,4.224,0,0,1-8.3848,0ZM14.46,16.3535a.9954.9954,0,0,1,.7881-.3838h1.2344a1.0019,1.0019,0,0,1,.9727,1.24,2.0228,2.0228,0,0,1-.537,1.09,1.55,1.55,0,0,1-2.1611-.06,2.06,2.06,0,0,1-.4807-1.0284A.9974.9974,0,0,1,14.46,16.3535Zm-1.9853,7.34a5.694,5.694,0,0,1,.27-1.3887,5.5157,5.5157,0,0,1,1.2418-2.1427,3.525,3.525,0,0,0,5.2184-1.8231h1.6609V19.418a3,3,0,0,0,6,0V18.3389h2.63a5.57,5.57,0,0,1,5.5791,5.3554l.523,12.8145H33.7737l-.5215-12.1025a1,1,0,1,0-1.998.0859l.3668,8.5166h-.7555a.5.5,0,0,0,0,1h.7986l.1077,2.5H18.8655V24.1064a3,3,0,0,0-6,0V36.5088h-.9144Zm4.3906,2.0986h-2V24.1064a1,1,0,0,1,2,0ZM12.0833,40.5244a.95.95,0,0,1-.2676-.7041l.0536-1.3115h.9962v2.2929A.9616.9616,0,0,1,12.0833,40.5244Zm4.7822,18.9844a1,1,0,0,1-2,0V27.792h2Zm7-15.65h-.02a1,1,0,0,0-.9737.8838l-.5361,4.5869H18.8655v-10.82H30.76l-1.8,18h-2.26L24.8538,44.7041A1,1,0,0,0,23.8655,43.8584Zm2.1885,16.65.5527-2h2.4981l.5527,2Zm8.3652,0,.5528-2H37.47l.5527,2Zm5.8047-16.6494a1,1,0,0,0-.9883.8457L37.3889,56.5088h-2.26L33.7407,42.6227a2.9285,2.9285,0,0,0,1.034.1966,2.9868,2.9868,0,0,0,2.956-3.081l-.05-1.23h9.4378l-1.8,18H43.06L41.2122,44.7051A1,1,0,0,0,40.2239,43.8594Zm2.1914,16.6494.5527-2h2.4981l.5527,2Zm9.4961-19.9824a.9479.9479,0,0,1-.6875.2939.9611.9611,0,0,1-.96-.96V38.5088h1.8674l.0535,1.3076A.9678.9678,0,0,1,51.9114,40.5264ZM39.8108,27.9355V25.8779a.5.5,0,1,1,1,0v2.0576a.5.5,0,1,1-1,0Zm0,5.1446V31.0225a.5.5,0,0,1,1,0V33.08a.5.5,0,0,1-1,0Zm-20.2148.4287a.5.5,0,0,1,.5-.5H22.25a.5.5,0,1,1,0,1H20.096A.5.5,0,0,1,19.596,33.5088Zm5.3847,0a.5.5,0,0,1,.5-.5h2.1534a.5.5,0,0,1,0,1H25.4807A.5.5,0,0,1,24.9807,33.5088Z"/></g><text x="0" y="79" fill="#000000" font-size="5px" font-weight="bold" font-family="'Helvetica Neue', Helvetica, Arial-Unicode, Arial, Sans-serif">Created by agus raharjo</text><text x="0" y="84" fill="#000000" font-size="5px" font-weight="bold" font-family="'Helvetica Neue', Helvetica, Arial-Unicode, Arial, Sans-serif">from the Noun Project</text></svg>