<?xml version="1.0" encoding="iso-8859-1"?>
<!-- Uploaded to: SVG Repo, www.svgrepo.com, Generator: SVG Repo Mixer Tools -->
<svg height="800px" width="800px" version="1.1" id="Capa_1" xmlns="http://www.w3.org/2000/svg" xmlns:xlink="http://www.w3.org/1999/xlink" 
	 viewBox="0 0 203.322 203.322" xml:space="preserve">
<g>
	<path style="fill:#010002;" d="M171.589,12.068l-0.655,0.118c-11.599,2.108-21.373,13.184-30.828,23.917
		c-5.064,5.733-9.835,11.148-14.68,14.92l-3.171,2.741c-18.574,16.023-18.939,17.089-12.959,38.061
		c0.512,1.789,1.067,3.736,1.618,5.715c3.908,19.526,2.212,25.242-2.333,40.513c-0.68,2.287-1.417,4.788-2.226,7.576
		c-2.938,10.289-2.036,25.363-1.378,36.375c0.254,4.234,0.626,10.533,0.394,11.771c-1.55,1.245-2.806,1.818-3.933,1.818
		c-1.109,0-2.076-0.523-3.303-1.195c-1.46-0.794-3.271-1.782-5.562-1.782c-1.324,0-2.656,0.319-3.922,0.941
		c-15.121,3.532-29.264,5.468-39.825,5.468c-7.018,0-11.875-0.888-13.353-2.452l-0.004-0.011c15.085-5.583,17.49-6.123,21.176-6.964
		c0.82-0.179,1.711-0.383,2.77-0.655c21.802-5.021,31.258-17.955,28.105-38.397c-1.882-15.106-5.529-30.893-9.083-46.303
		c-2.212-9.591-4.499-19.512-6.292-29.067c-7.233-31.809,7.881-47.928,33.129-71.598l0.48-0.458L102.84,0l-0.483,0.455
		C78.6,22.722,59.836,40.309,67.974,76.051c1.786,9.545,4.076,19.498,6.292,29.121l0.043,0.186
		c3.504,15.135,7.111,30.792,8.983,45.791c2.799,18.141-5.336,29.143-24.862,33.652c-1.102,0.276-1.972,0.476-2.799,0.662
		c-3.883,0.87-6.449,1.453-23.123,7.659l-1.009,0.369l-0.297,1.027c-0.548,1.84-0.132,3.622,1.174,5.003
		c2.376,2.523,7.899,3.801,16.409,3.801c10.633,0,25.972-2.108,41.085-5.647l0.379-0.15c2.276-1.117,3.776-0.483,5.851,0.644
		c1.478,0.812,3.164,1.721,5.322,1.721c2.18,0,4.409-0.963,6.814-2.917c1.746-1.424,1.632-4.789,1.002-15.285
		c-0.633-10.683-1.496-25.32,1.235-34.879c0.791-2.759,1.528-5.25,2.215-7.544c4.62-15.55,6.531-21.992,2.394-42.703
		c-0.523-1.861-1.009-3.579-1.471-5.182l-0.197-0.716c-5.408-18.946-5.408-18.946,11.631-33.652l3.092-2.677
		c5.082-3.955,9.989-9.516,15.196-15.432c8.965-10.16,18.227-20.664,28.362-22.504l0.658-0.118L171.589,12.068z"/>
</g>
</svg>