<?xml version="1.0" encoding="utf-8"?>
<svg viewBox="148.9732 177.1118 184.8589 288.2403" xmlns="http://www.w3.org/2000/svg">
  <g transform="matrix(3.9751811027526855, 0, 0, 3.7500228881835938, 42.66032791137695, 133.7239990234375)" style="">
    <path d="m50 62.59c7.6797 0 13.93-6.25 13.93-13.93v-23.16c0-7.6797-6.25-13.93-13.93-13.93s-13.93 6.25-13.93 13.93v23.16c0 7.6797 6.25 13.93 13.93 13.93zm-9.2305-37.09c0-5.0898 4.1406-9.2305 9.2305-9.2305s9.2305 4.1406 9.2305 9.2305v23.16c0 5.0898-4.1406 9.2305-9.2305 9.2305s-9.2305-4.1406-9.2305-9.2305z"/>
    <path d="m47.648 72.871v13.211c0 1.3008 1.0508 2.3516 2.3516 2.3516s2.3516-1.0508 2.3516-2.3516v-13.199c10.07-1.0195 18.641-8.4805 20.84-18.512 0.28125-1.2695-0.51953-2.5195-1.7891-2.8008-1.2695-0.28125-2.5195 0.51953-2.8008 1.7891-1.8984 8.6602-9.7305 14.949-18.602 14.949-8.8789 0-16.711-6.2891-18.609-14.949-0.28125-1.2695-1.5312-2.0703-2.8008-1.7891-1.2695 0.28125-2.0703 1.5312-1.7891 2.8008 2.2109 10.02 10.777 17.48 20.848 18.5z"/>
  </g>
</svg>